<?xml version="1.0" encoding="UTF-8" standalone="no"?>
<!DOCTYPE svg PUBLIC "-//W3C//DTD SVG 1.1//EN"
 "http://www.w3.org/Graphics/SVG/1.1/DTD/svg11.dtd">
<!-- Generated by graphviz version 2.40.1 (20161225.0304)
 -->
<!-- Title: models_diagram Pages: 1 -->
<svg width="565pt" height="523pt"
 viewBox="0.00 0.00 565.08 523.00" xmlns="http://www.w3.org/2000/svg" xmlns:xlink="http://www.w3.org/1999/xlink">
<g id="graph0" class="graph" transform="scale(1 1) rotate(0) translate(4 519)">
<title>models_diagram</title>
<polygon fill="transparent" stroke="transparent" points="-4,4 -4,-519 561.0835,-519 561.0835,4 -4,4"/>
<!-- _diagram_info -->
<g id="node1" class="node">
<title>_diagram_info</title>
<text text-anchor="start" x="8" y="-472.6" font-family="Times,serif" font-size="13.00" fill="#000000">Models diagram</text>
<text text-anchor="start" x="8" y="-459.6" font-family="Times,serif" font-size="13.00" fill="#000000">Date: Dec 14 2017 &#45; 11:36</text>
<text text-anchor="start" x="8" y="-446.6" font-family="Times,serif" font-size="13.00" fill="#000000">Migration version: 20171214103554</text>
<text text-anchor="start" x="8" y="-433.6" font-family="Times,serif" font-size="13.00" fill="#000000">Generated by RailRoady 1.5.3</text>
<text text-anchor="start" x="8" y="-420.6" font-family="Times,serif" font-size="13.00" fill="#000000">http://railroady.prestonlee.com</text>
</g>
<!-- Invoice -->
<g id="node2" class="node">
<title>Invoice</title>
<path fill="none" stroke="#000000" d="M105.1824,-235.5C105.1824,-235.5 214.1931,-235.5 214.1931,-235.5 220.1931,-235.5 226.1931,-241.5 226.1931,-247.5 226.1931,-247.5 226.1931,-309.5 226.1931,-309.5 226.1931,-315.5 220.1931,-321.5 214.1931,-321.5 214.1931,-321.5 105.1824,-321.5 105.1824,-321.5 99.1824,-321.5 93.1824,-315.5 93.1824,-309.5 93.1824,-309.5 93.1824,-247.5 93.1824,-247.5 93.1824,-241.5 99.1824,-235.5 105.1824,-235.5"/>
<text text-anchor="middle" x="159.6877" y="-306.3" font-family="Times,serif" font-size="14.00" fill="#000000">Invoice</text>
<polyline fill="none" stroke="#000000" points="93.1824,-299.5 226.1931,-299.5 "/>
<text text-anchor="start" x="101.1824" y="-284.3" font-family="Times,serif" font-size="14.00" fill="#000000">id :INTEGER</text>
<text text-anchor="start" x="101.1824" y="-270.3" font-family="Times,serif" font-size="14.00" fill="#000000">created_at :datetime</text>
<text text-anchor="start" x="101.1824" y="-256.3" font-family="Times,serif" font-size="14.00" fill="#000000">updated_at :datetime</text>
<text text-anchor="start" x="101.1824" y="-242.3" font-family="Times,serif" font-size="14.00" fill="#000000">total_amount :float</text>
</g>
<!-- Hour -->
<g id="node3" class="node">
<title>Hour</title>
<path fill="none" stroke="#000000" d="M200.1824,-.5C200.1824,-.5 309.1931,-.5 309.1931,-.5 315.1931,-.5 321.1931,-6.5 321.1931,-12.5 321.1931,-12.5 321.1931,-158.5 321.1931,-158.5 321.1931,-164.5 315.1931,-170.5 309.1931,-170.5 309.1931,-170.5 200.1824,-170.5 200.1824,-170.5 194.1824,-170.5 188.1824,-164.5 188.1824,-158.5 188.1824,-158.5 188.1824,-12.5 188.1824,-12.5 188.1824,-6.5 194.1824,-.5 200.1824,-.5"/>
<text text-anchor="middle" x="254.6877" y="-155.3" font-family="Times,serif" font-size="14.00" fill="#000000">Hour</text>
<polyline fill="none" stroke="#000000" points="188.1824,-148.5 321.1931,-148.5 "/>
<text text-anchor="start" x="196.1824" y="-133.3" font-family="Times,serif" font-size="14.00" fill="#000000">invoice_id :integer</text>
<text text-anchor="start" x="196.1824" y="-119.3" font-family="Times,serif" font-size="14.00" fill="#000000">date :date</text>
<text text-anchor="start" x="196.1824" y="-105.3" font-family="Times,serif" font-size="14.00" fill="#000000">start_time :time</text>
<text text-anchor="start" x="196.1824" y="-91.3" font-family="Times,serif" font-size="14.00" fill="#000000">end_time :time</text>
<text text-anchor="start" x="196.1824" y="-77.3" font-family="Times,serif" font-size="14.00" fill="#000000">description :text</text>
<text text-anchor="start" x="196.1824" y="-63.3" font-family="Times,serif" font-size="14.00" fill="#000000">created_at :datetime</text>
<text text-anchor="start" x="196.1824" y="-49.3" font-family="Times,serif" font-size="14.00" fill="#000000">updated_at :datetime</text>
<text text-anchor="start" x="196.1824" y="-35.3" font-family="Times,serif" font-size="14.00" fill="#000000">user_id :integer</text>
<text text-anchor="start" x="196.1824" y="-21.3" font-family="Times,serif" font-size="14.00" fill="#000000">client_id :integer</text>
<text text-anchor="start" x="196.1824" y="-7.3" font-family="Times,serif" font-size="14.00" fill="#000000">id :INTEGER</text>
</g>
<!-- Invoice&#45;&gt;Hour -->
<g id="edge1" class="edge">
<title>Invoice&#45;&gt;Hour</title>
<path fill="none" stroke="#311b41" d="M184.6248,-227.8383C191.9118,-213.0344 200.1215,-196.3556 208.2879,-179.765"/>
<ellipse fill="none" stroke="#311b41" cx="182.7741" cy="-231.5982" rx="4" ry="4"/>
<polygon fill="#311b41" stroke="#311b41" points="208.3978,-179.5415 216.8515,-172.5569 210.606,-175.0555 212.8141,-170.5695 212.8141,-170.5695 212.8141,-170.5695 210.606,-175.0555 208.7767,-168.5822 208.3978,-179.5415 208.3978,-179.5415"/>
</g>
<!-- Client -->
<g id="node4" class="node">
<title>Client</title>
<path fill="none" stroke="#000000" d="M294.3616,-207.5C294.3616,-207.5 415.0139,-207.5 415.0139,-207.5 421.0139,-207.5 427.0139,-213.5 427.0139,-219.5 427.0139,-219.5 427.0139,-337.5 427.0139,-337.5 427.0139,-343.5 421.0139,-349.5 415.0139,-349.5 415.0139,-349.5 294.3616,-349.5 294.3616,-349.5 288.3616,-349.5 282.3616,-343.5 282.3616,-337.5 282.3616,-337.5 282.3616,-219.5 282.3616,-219.5 282.3616,-213.5 288.3616,-207.5 294.3616,-207.5"/>
<text text-anchor="middle" x="354.6877" y="-334.3" font-family="Times,serif" font-size="14.00" fill="#000000">Client</text>
<polyline fill="none" stroke="#000000" points="282.3616,-327.5 427.0139,-327.5 "/>
<text text-anchor="start" x="290.3616" y="-312.3" font-family="Times,serif" font-size="14.00" fill="#000000">user_id :integer</text>
<text text-anchor="start" x="290.3616" y="-298.3" font-family="Times,serif" font-size="14.00" fill="#000000">name :varchar</text>
<text text-anchor="start" x="290.3616" y="-284.3" font-family="Times,serif" font-size="14.00" fill="#000000">codice_fiscale :varchar</text>
<text text-anchor="start" x="290.3616" y="-270.3" font-family="Times,serif" font-size="14.00" fill="#000000">email :varchar</text>
<text text-anchor="start" x="290.3616" y="-256.3" font-family="Times,serif" font-size="14.00" fill="#000000">partita_iva :integer</text>
<text text-anchor="start" x="290.3616" y="-242.3" font-family="Times,serif" font-size="14.00" fill="#000000">created_at :datetime</text>
<text text-anchor="start" x="290.3616" y="-228.3" font-family="Times,serif" font-size="14.00" fill="#000000">updated_at :datetime</text>
<text text-anchor="start" x="290.3616" y="-214.3" font-family="Times,serif" font-size="14.00" fill="#000000">id :INTEGER</text>
</g>
<!-- Client&#45;&gt;Hour -->
<g id="edge2" class="edge">
<title>Client&#45;&gt;Hour</title>
<path fill="none" stroke="#e30340" d="M314.0782,-200.1236C310.6365,-193.4812 307.1333,-186.7199 303.6369,-179.9719"/>
<ellipse fill="none" stroke="#e30340" cx="316.0372" cy="-203.9046" rx="4" ry="4"/>
<polygon fill="#e30340" stroke="#e30340" points="303.4804,-179.6696 302.8753,-168.7205 301.1801,-175.2302 298.8798,-170.7907 298.8798,-170.7907 298.8798,-170.7907 301.1801,-175.2302 294.8843,-172.8609 303.4804,-179.6696 303.4804,-179.6696"/>
</g>
<!-- ApplicationRecord -->
<g id="node5" class="node">
<title>ApplicationRecord</title>
<ellipse fill="none" stroke="#000000" cx="479.6877" cy="-450.5" rx="77.2916" ry="18"/>
<text text-anchor="middle" x="479.6877" y="-446.3" font-family="Times,serif" font-size="14.00" fill="#000000">ApplicationRecord</text>
</g>
<!-- User -->
<g id="node6" class="node">
<title>User</title>
<path fill="none" stroke="#000000" d="M237.3479,-386.5C237.3479,-386.5 372.0276,-386.5 372.0276,-386.5 378.0276,-386.5 384.0276,-392.5 384.0276,-398.5 384.0276,-398.5 384.0276,-502.5 384.0276,-502.5 384.0276,-508.5 378.0276,-514.5 372.0276,-514.5 372.0276,-514.5 237.3479,-514.5 237.3479,-514.5 231.3479,-514.5 225.3479,-508.5 225.3479,-502.5 225.3479,-502.5 225.3479,-398.5 225.3479,-398.5 225.3479,-392.5 231.3479,-386.5 237.3479,-386.5"/>
<text text-anchor="middle" x="304.6877" y="-499.3" font-family="Times,serif" font-size="14.00" fill="#000000">User</text>
<polyline fill="none" stroke="#000000" points="225.3479,-492.5 384.0276,-492.5 "/>
<text text-anchor="start" x="233.3479" y="-477.3" font-family="Times,serif" font-size="14.00" fill="#000000">id :INTEGER</text>
<text text-anchor="start" x="233.3479" y="-463.3" font-family="Times,serif" font-size="14.00" fill="#000000">name :varchar</text>
<text text-anchor="start" x="233.3479" y="-449.3" font-family="Times,serif" font-size="14.00" fill="#000000">email :varchar</text>
<text text-anchor="start" x="233.3479" y="-435.3" font-family="Times,serif" font-size="14.00" fill="#000000">created_at :datetime</text>
<text text-anchor="start" x="233.3479" y="-421.3" font-family="Times,serif" font-size="14.00" fill="#000000">updated_at :datetime</text>
<text text-anchor="start" x="233.3479" y="-407.3" font-family="Times,serif" font-size="14.00" fill="#000000">password_digest :varchar</text>
<text text-anchor="start" x="233.3479" y="-393.3" font-family="Times,serif" font-size="14.00" fill="#000000">tarif :float</text>
</g>
<!-- User&#45;&gt;Hour -->
<g id="edge3" class="edge">
<title>User&#45;&gt;Hour</title>
<path fill="none" stroke="#cb0bd9" d="M280.3336,-378.5071C277.7529,-369.0019 275.4369,-359.3235 273.6877,-350 263.2837,-294.5443 258.4867,-231.5655 256.3126,-180.9766"/>
<ellipse fill="none" stroke="#cb0bd9" cx="281.4773" cy="-382.5876" rx="4" ry="4"/>
<polygon fill="#cb0bd9" stroke="#cb0bd9" points="256.3014,-180.6957 260.396,-170.523 256.1005,-175.6997 255.8996,-170.7038 255.8996,-170.7038 255.8996,-170.7038 256.1005,-175.6997 251.4032,-170.8846 256.3014,-180.6957 256.3014,-180.6957"/>
</g>
<!-- User&#45;&gt;Client -->
<g id="edge4" class="edge">
<title>User&#45;&gt;Client</title>
<path fill="none" stroke="#6cfabd" d="M325.5408,-378.7656C327.3844,-372.4234 329.2591,-365.9746 331.123,-359.5626"/>
<ellipse fill="none" stroke="#6cfabd" cx="324.4225" cy="-382.6125" rx="4" ry="4"/>
<polygon fill="#6cfabd" stroke="#6cfabd" points="331.2458,-359.1399 338.3585,-350.7936 332.6416,-354.3387 334.0373,-349.5374 334.0373,-349.5374 334.0373,-349.5374 332.6416,-354.3387 329.7162,-348.2813 331.2458,-359.1399 331.2458,-359.1399"/>
</g>
</g>
</svg>
